<svg width="112" height="55" viewBox="0 0 112 55" fill="none" xmlns="http://www.w3.org/2000/svg">
<path d="M21.32 54.96C17.3733 54.96 13.8267 54.1867 10.68 52.64C7.58667 51.0933 5.16 48.7733 3.4 45.68C1.64 42.5867 0.76 38.6933 0.76 34V21.6C0.76 14.56 2.76 9.30667 6.76 5.84C10.8133 2.37333 16.36 0.639996 23.4 0.639996C28.6267 0.639996 32.9467 1.44 36.36 3.04C39.8267 4.64 42.3067 6.8 43.8 9.52C45.3467 12.24 45.9067 15.2533 45.48 18.56C45.3733 19.3067 45 19.68 44.36 19.68L33.32 19.6C32.68 19.6 32.36 19.2 32.36 18.4C32.4133 17.12 32.1467 16 31.56 15.04C30.9733 14.08 30.0133 13.3333 28.68 12.8C27.4 12.2667 25.6933 12 23.56 12C20.4133 12 18.0133 12.8 16.36 14.4C14.76 16 13.96 18.6133 13.96 22.24V33.36C13.96 36.9867 14.8133 39.6 16.52 41.2C18.2267 42.8 20.7067 43.6 23.96 43.6C26.8933 43.6 29.1067 43.0133 30.6 41.84C32.1467 40.6133 32.92 38.8533 32.92 36.56V34.56H24.12C23.3733 34.56 23 34.1867 23 33.44V26.88C23 26.1333 23.3733 25.76 24.12 25.76H44.52C44.84 25.76 45.08 25.8667 45.24 26.08C45.4533 26.24 45.56 26.5067 45.56 26.88V40.24C45.56 42.2133 45.5867 44.3733 45.64 46.72C45.7467 49.0133 45.9867 51.04 46.36 52.8C46.4667 53.1733 46.3867 53.4667 46.12 53.68C45.9067 53.8933 45.64 54 45.32 54H36.52C36.2 54 35.96 53.92 35.8 53.76C35.64 53.6 35.5067 53.3333 35.4 52.96C35.24 52.3733 35.1333 51.6 35.08 50.64C35.0267 49.68 34.9733 48.8267 34.92 48.08H34.76C34.0133 49.36 33.0267 50.5333 31.8 51.6C30.6267 52.6133 29.1867 53.4133 27.48 54C25.7733 54.64 23.72 54.96 21.32 54.96ZM55.3156 54C54.9956 54 54.729 53.8933 54.5156 53.68C54.3023 53.4667 54.1956 53.2 54.1956 52.88L55.3156 2.72C55.3156 1.97333 55.6623 1.6 56.3556 1.6H69.0756C69.6623 1.6 70.0623 1.86666 70.2756 2.4L82.7556 28.64L95.2356 2.4C95.5023 1.86666 95.929 1.6 96.5156 1.6H109.156C109.902 1.6 110.276 1.97333 110.276 2.72L111.316 52.88C111.316 53.2 111.209 53.4667 110.996 53.68C110.782 53.8933 110.542 54 110.276 54H99.5556C98.809 54 98.4356 53.6267 98.4356 52.88L97.9556 34.96C97.9023 32.72 97.929 30.3733 98.0356 27.92C98.1423 25.4133 98.249 23.0667 98.3556 20.88H98.0356C97.129 23.0133 96.1423 25.2533 95.0756 27.6C94.009 29.9467 92.889 32.2133 91.7156 34.4L84.3556 48.64C84.089 49.1733 83.6356 49.44 82.9956 49.44H82.5156C81.8756 49.44 81.449 49.1733 81.2356 48.64L73.7956 34.32C72.729 32.1867 71.6356 29.9467 70.5156 27.6C69.449 25.2 68.4623 22.96 67.5556 20.88H67.2356C67.3423 23.12 67.449 25.4667 67.5556 27.92C67.6623 30.3733 67.689 32.72 67.6356 34.96L67.1556 52.88C67.1556 53.6267 66.7823 54 66.0356 54H55.3156Z" fill="white"/>
</svg>
